<?xml version="1.0" encoding="UTF-8"?>
<svg width="411px" height="86px" viewBox="0 0 411 86" version="1.1" xmlns="http://www.w3.org/2000/svg" xmlns:xlink="http://www.w3.org/1999/xlink">
    <!-- Generator: Sketch 62 (91390) - https://sketch.com -->
    <title>logo</title>
    <desc>Created with Sketch.</desc>
    <g id="Page-1" stroke="none" stroke-width="1" fill="none" fill-rule="evenodd">
        <g id="logo" transform="translate(-2.000000, -1.000000)" fill-rule="nonzero">
            <g id="SvgjsG1007" transform="translate(5.738341, 66.953362)" fill="#3F72AF">
                <path d="M11.7485093,1.30829725 L13.9202828,1.30829725 L13.9202828,19.6244588 L11.7485093,19.6244588 L11.7485093,11.6176796 L2.43343289,11.6176796 L2.43343289,19.6244588 L0.261659451,19.6244588 L0.261659451,1.30829725 L2.43343289,1.30829725 L2.43343289,9.5767359 L11.7485093,9.5767359 L11.7485093,1.30829725 Z M62.0263728,1.0466378 C66.7885749,1.0466378 71.3937812,4.91919768 71.3937812,10.466378 C71.3937812,16.0135584 66.7885749,19.8861183 62.0263728,19.8861183 C57.2380049,19.8861183 52.6589645,16.0135584 52.6589645,10.466378 C52.6589645,4.91919768 57.2380049,1.0466378 62.0263728,1.0466378 L62.0263728,1.0466378 Z M62.0263728,17.8190086 C65.6111073,17.8190086 69.1435099,14.783759 69.1435099,10.466378 C69.1435099,6.1489971 65.6111073,3.11374747 62.0263728,3.11374747 C58.4154724,3.11374747 54.9092358,6.1489971 54.9092358,10.466378 C54.9092358,14.783759 58.4154724,17.8190086 62.0263728,17.8190086 Z M129.207437,1.30829725 L129.207437,19.6244588 L126.983332,19.6244588 L126.983332,6.17516304 L120.546509,19.6244588 L118.767225,19.6244588 L112.356568,6.20132899 L112.356568,19.6244588 L110.132463,19.6244588 L110.132463,1.30829725 L112.27807,1.30829725 L119.683033,16.6415411 L127.061829,1.30829725 L129.207437,1.30829725 L129.207437,1.30829725 Z M170.510381,17.5835151 L179.223641,17.5835151 L179.223641,19.6244588 L169.987062,19.6244588 L168.338608,19.6244588 L168.338608,1.30829725 L170.510381,1.30829725 L178.988147,1.30829725 L178.988147,3.34924097 L170.510381,3.34924097 L170.510381,9.41974023 L177.104199,9.41974023 L177.104199,11.4083521 L170.510381,11.4083521 L170.510381,17.5835151 L170.510381,17.5835151 Z M241.930328,1.30829725 L236.016825,19.6244588 L234.603864,19.6244588 L229.553836,5.31168685 L224.529975,19.6244588 L223.117014,19.6244588 L217.177344,1.30829725 L219.427616,1.30829725 L223.901992,15.1500822 L228.795024,1.30829725 L230.312649,1.30829725 L235.231846,15.1500822 L239.706223,1.30829725 L241.930328,1.30829725 L241.930328,1.30829725 Z M289.25144,1.0466378 C294.013642,1.0466378 298.618848,4.91919768 298.618848,10.466378 C298.618848,16.0135584 294.013642,19.8861183 289.25144,19.8861183 C284.463072,19.8861183 279.884032,16.0135584 279.884032,10.466378 C279.884032,4.91919768 284.463072,1.0466378 289.25144,1.0466378 Z M289.25144,17.8190086 C292.836175,17.8190086 296.368577,14.783759 296.368577,10.466378 C296.368577,6.1489971 292.836175,3.11374747 289.25144,3.11374747 C285.64054,3.11374747 282.134303,6.1489971 282.134303,10.466378 C282.134303,14.783759 285.64054,17.8190086 289.25144,17.8190086 Z M350.806826,19.6244588 L348.451891,19.6244588 L343.820519,13.0306407 L343.323366,13.0306407 L339.529304,13.0306407 L339.529304,19.6244588 L337.35753,19.6244588 L337.35753,1.30829725 L343.323366,1.30829725 C347.431419,1.30829725 349.81252,3.82022798 349.81252,7.22180085 C349.81252,9.83839536 348.399559,11.8793391 345.887628,12.6643174 L350.806826,19.6244588 Z M339.529304,3.34924097 L339.529304,11.0943607 L343.271034,11.0943607 C345.913794,11.0943607 347.640747,9.73373158 347.640747,7.22180085 C347.640747,4.68370417 345.913794,3.34924097 343.271034,3.34924097 L339.529304,3.34924097 Z M401.137021,19.6244588 L394.04605,11.0681948 L391.377124,13.9726147 L391.377124,19.6244588 L389.153018,19.6244588 L389.153018,1.30829725 L391.377124,1.30829725 L391.377124,11.1205267 L400.299711,1.30829725 L403.020969,1.30829725 L395.406679,9.60290185 L403.701284,19.6244588 L401.137021,19.6244588 L401.137021,19.6244588 Z" id="Shape"></path>
            </g>
            <g id="SvgjsG1008" transform="translate(0.656647, 12.918581)" fill="#112D4E">
                <path d="M18.5219634,26.6634858 C17.7078112,27.3690844 16.601921,27.8847141 15.204293,28.210375 C13.806665,28.5360359 12.375114,28.6988664 10.90964,28.6988664 C10.176903,28.6988664 9.04387444,28.6852972 7.51055439,28.6581588 C5.97723435,28.6310204 4.01648437,28.5903127 1.62830448,28.5360359 L1.34335119,28.2917903 L1.34335119,0.895567462 L1.62830448,0.65132179 C3.20233214,0.597044974 4.7831444,0.556337362 6.37074126,0.529198955 C7.95833812,0.502060547 9.579858,0.488491343 11.2353009,0.488491343 C13.5149271,0.488491343 15.4078311,0.85485985 16.9140127,1.58759686 C18.4201944,2.32033388 19.6210689,3.33123957 20.5166364,4.62031395 C21.4122039,5.90938833 22.0431718,7.40878536 22.4095403,9.11850506 C22.7759089,10.8282248 22.9590931,12.6600673 22.9590931,14.6140327 C22.9590931,17.3278735 22.653786,19.6685611 22.0431718,21.6360957 C21.4325577,23.6036303 20.2588215,25.279427 18.5219634,26.6634858 L18.5219634,26.6634858 Z M16.2830448,8.06010715 C15.4688925,5.88903452 13.7863112,4.8034982 11.2353009,4.8034982 L8.71142894,4.8034982 C8.71142894,4.8034982 8.07367636,4.789929 6.79817119,4.76279059 L6.79817119,24.4245671 C7.31380094,24.3974287 7.90406131,24.3838595 8.5689523,24.3838595 C9.2338433,24.3838595 9.90551889,24.3702903 10.5839791,24.3431519 C11.2624393,24.3160135 11.8934073,24.2617367 12.476883,24.1803215 C13.0603588,24.0989062 13.5420656,23.9632142 13.9220033,23.7732453 C14.6276019,23.3933076 15.204293,22.8844625 15.6520768,22.2467099 C16.0998605,21.6089573 16.4458752,20.8762203 16.6901209,20.0484989 C16.9343665,19.2207774 17.1039816,18.32521 17.198966,17.3617965 C17.2939505,16.398383 17.3414427,15.4010465 17.3414427,14.369787 C17.3414427,13.2028355 17.266812,12.1172991 17.1175508,11.113178 C16.9682896,10.109057 16.6901209,9.09136666 16.2830448,8.06010715 Z M37.0846344,8.75213656 L40.3005358,0.692029402 C40.9247192,0.556337362 41.711733,0.488491343 42.6615773,0.488491343 C43.6114215,0.488491343 44.4662814,0.610614178 45.2261568,0.85485985 L45.4296949,1.18052074 L37.6138334,19.824607 L37.6138334,28.4953283 C36.9082348,28.6310204 35.9990981,28.6988664 34.8864234,28.6988664 C33.7737487,28.6988664 32.864612,28.6310204 32.1590134,28.4953283 L32.1590134,19.6617765 L24.3431519,1.34335119 C25.482965,0.692029402 26.5142245,0.366368507 27.4369304,0.366368507 C28.3596363,0.366368507 29.0380965,0.542768159 29.472311,0.895567462 C29.9065255,1.24836676 30.2864632,1.83184253 30.6121241,2.64599477 L33.1767037,8.914967 C33.8823023,10.7603787 34.4657781,12.5786521 34.927131,14.369787 L35.1713767,14.369787 C35.6055912,12.7957593 36.2433438,10.9232092 37.0846344,8.75213656 L37.0846344,8.75213656 Z M69.854262,0.447783731 L70.1392153,0.732737014 L70.1392153,28.4139131 C69.2979246,28.603882 68.2395267,28.6988664 66.9640216,28.6988664 C65.6885164,28.6988664 64.5758417,28.6310204 63.6259974,28.4953283 L56.1357968,12.7414825 C55.0502605,10.3533026 54.2361082,8.45361407 53.6933401,7.04241686 L53.5305096,7.08312447 C53.8290321,10.90964 53.9782934,14.6004635 53.9782934,18.1555949 L53.9782934,28.4953283 C53.2184179,28.6310204 52.3567735,28.6988664 51.39336,28.6988664 C50.4299465,28.6988664 49.5954405,28.6310204 48.8898419,28.4953283 L48.8898419,0.773444626 C49.6768557,0.58347577 50.7081152,0.488491343 51.9836204,0.488491343 C53.2591256,0.488491343 54.3718003,0.556337362 55.3216446,0.692029402 L62.7304299,16.4458752 L65.3764247,22.4706018 L65.4985475,22.4298942 C65.2271634,18.494825 65.0914714,14.7768631 65.0914714,11.2760085 L65.0914714,3.82651552 C65.0914714,2.60528716 65.3221479,1.73685811 65.7835008,1.22122836 C66.2448537,0.705598606 67.0182984,0.447783731 68.1038347,0.447783731 L69.854262,0.447783731 Z M90.8593897,22.1856485 L88.8647168,22.2263561 L83.1656511,22.2263561 L81.1709781,22.1856485 L79.2577203,28.5360359 C78.6878138,28.671728 77.8804461,28.739574 76.8356174,28.739574 C75.7907887,28.739574 74.9427135,28.6174512 74.2913917,28.3732055 L74.0878536,28.0882522 L83.1656511,0.692029402 C84.1697722,0.556337362 85.2553085,0.488491343 86.42226,0.488491343 C87.5892116,0.488491343 88.6069019,0.569906566 89.4753309,0.732737014 L98.3902979,28.1289598 C97.6032841,28.5903127 96.6602244,28.8209892 95.5611189,28.8209892 C94.4620134,28.8209892 93.6749996,28.6174512 93.2000774,28.210375 C92.7251553,27.8032989 92.3248638,27.0298543 91.9992029,25.8900412 L90.8593897,22.1856485 Z M82.5143293,17.8706416 L84.3461718,17.829934 L87.8470265,17.829934 L89.5567462,17.8706416 L88.3355178,13.7184652 C87.4128119,10.6246867 86.6800749,7.99226113 86.1373068,5.8211885 L85.8930611,5.8211885 C85.6488154,6.98814004 85.0517704,9.28133551 84.1019262,12.7007749 L82.5143293,17.8706416 Z M101.565492,28.4139131 L103.722995,0.732737014 C104.83567,0.542768159 106.036544,0.447783731 107.325619,0.447783731 C108.614693,0.447783731 109.788429,0.542768159 110.846827,0.732737014 L113.981313,12.0087455 C114.822604,15.3739081 115.338234,17.694242 115.528203,18.9697471 L115.813156,18.9697471 C116.003125,17.694242 116.518754,15.3739081 117.360045,12.0087455 L120.453824,0.732737014 C121.593637,0.542768159 122.787727,0.447783731 124.036093,0.447783731 C125.28446,0.447783731 126.47855,0.542768159 127.618363,0.732737014 L129.775867,28.4139131 C129.04313,28.603882 128.167916,28.6988664 127.150226,28.6988664 C126.132535,28.6988664 125.28446,28.6445896 124.606,28.5360359 L123.832555,15.4688925 C123.615448,12.1037299 123.506894,9.15921267 123.506894,6.63534074 L123.221941,6.63534074 L118.459151,24.3431519 C117.563583,24.4788439 116.634093,24.54669 115.670679,24.54669 C114.707266,24.54669 113.777775,24.4788439 112.882208,24.3431519 L108.119417,6.63534074 L107.834464,6.63534074 C107.780187,9.97336491 107.671633,12.9178822 107.508803,15.4688925 L106.735358,28.5360359 C106.056898,28.6445896 105.208823,28.6988664 104.191133,28.6988664 C103.173442,28.6988664 102.298229,28.603882 101.565492,28.4139131 L101.565492,28.4139131 Z M135.882008,28.4953283 L135.882008,0.692029402 C136.560469,0.556337362 137.449252,0.488491343 138.548357,0.488491343 C139.647463,0.488491343 140.576953,0.556337362 141.336828,0.692029402 L141.336828,28.4953283 C140.576953,28.6310204 139.647463,28.6988664 138.548357,28.6988664 C137.449252,28.6988664 136.560469,28.6310204 135.882008,28.4953283 Z M162.993278,11.0724704 L162.993278,10.6653943 C162.993278,9.76982685 162.898294,8.94889001 162.708325,8.2025838 C162.518356,7.45627758 162.219833,6.80495579 161.812757,6.24861842 C161.405681,5.69228106 160.883267,5.25806654 160.245514,4.94597484 C159.607762,4.63388315 158.841102,4.47783731 157.945534,4.47783731 C155.96443,4.47783731 154.526095,5.36662017 153.630527,7.14418589 C152.73496,8.92175161 152.287176,11.6152386 152.287176,15.2246468 C152.287176,18.1013181 152.836729,20.3334521 153.935834,21.921049 C155.03494,23.5086459 156.534337,24.3024443 158.434025,24.3024443 C159.438147,24.3024443 160.530467,24.0649832 161.710988,23.5900611 C162.891509,23.115139 164.16023,22.3620481 165.51715,21.3307886 C166.087057,21.7107263 166.629825,22.2399253 167.145454,22.9183855 C167.661084,23.5968457 167.986745,24.2481675 168.122437,24.8723509 C167.525392,25.4693958 166.826578,26.0189486 166.025995,26.5210091 C165.225412,27.0230697 164.363768,27.4640688 163.441062,27.8440065 C162.518356,28.2239442 161.554942,28.5224667 160.550821,28.739574 C159.5467,28.9566813 158.542579,29.0652349 157.538458,29.0652349 C155.530216,29.0652349 153.834065,28.6785126 152.450007,27.9050679 C151.065948,27.1316233 149.932919,26.0867946 149.050921,24.7705818 C148.168923,23.454369 147.53117,21.9278336 147.137663,20.1909755 C146.744156,18.4541174 146.547403,16.6222749 146.547403,14.6954479 C146.547403,12.2529912 146.845925,10.1158416 147.44297,8.28399902 C148.040015,6.45215648 148.847383,4.93240564 149.865073,3.72474649 C150.882763,2.51708734 152.076853,1.60795067 153.447343,0.997336491 C154.817833,0.386722313 156.276522,0.0814152238 157.823411,0.0814152238 C159.424577,0.0814152238 160.869698,0.298522487 162.158772,0.732737014 C163.447846,1.16695154 164.540167,1.75721191 165.435735,2.50351813 C166.331302,3.24982435 167.023332,4.1182534 167.511823,5.10880529 C168.000314,6.09935718 168.24456,7.16453969 168.24456,8.30435283 C168.24456,10.3397334 167.2133,11.3574237 165.150781,11.3574237 C164.852259,11.3574237 164.526598,11.3370699 164.173799,11.2963623 C163.820999,11.2556547 163.427493,11.1810241 162.993278,11.0724704 Z" id="Shape"></path>
            </g>
            <g id="SvgjsG1009" transform="translate(188.626099, 0.549592)" fill="#3F72AF">
                <path d="M27.7945199,0.450408422 L19.3231387,17.6251606 L0.373900719,20.3831415 L14.089763,33.7460807 L10.8579284,52.6212793 L27.8056258,43.7056603 L44.7582589,52.6126418 L41.5153178,33.7386772 L55.2250104,20.3683332 L36.273304,17.620225 L27.7945199,0.450408422 Z M27.8586874,19.0541278 C33.8001247,19.0543558 38.6166622,23.8376104 38.6166622,29.7380626 C38.6117925,32.7752506 37.3055501,35.6668434 35.0245006,37.6899314 C33.5209934,34.4554037 30.7731329,32.4656223 27.8006895,32.4590234 C24.8527934,32.4673581 22.1245769,34.42639 20.6138984,37.6195937 C18.379922,35.5991075 17.1044908,32.7387917 17.0994786,29.7380626 C17.0994786,26.9043438 18.2331544,24.1867207 20.2509139,22.1830779 C22.2686735,20.1794351 25.0052854,19.0539123 27.8586874,19.0541278 Z" id="Shape"></path>
                <circle id="Oval" cx="27.7994556" cy="26.6367566" r="5.05444647"></circle>
            </g>
            <g id="SvgjsG1010" transform="translate(263.877706, 12.877706)" fill="#112D4E">
                <path d="M9.33515397,19.2817809 L5.58478644,19.2817809 L5.58478644,28.5354051 C4.8238423,28.671288 3.91342699,28.7392295 2.85354051,28.7392295 C1.79365404,28.7392295 0.883238731,28.671288 0.122294593,28.5354051 L0.122294593,0.896827019 L0.407648645,0.652237832 C2.60895133,0.597884679 4.45016437,0.557119815 5.93128778,0.529943238 C7.41241119,0.502766662 8.54703326,0.489178374 9.33515397,0.489178374 C12.2702242,0.489178374 14.6142039,1.29088738 16.3670931,2.89430538 C18.1199823,4.49772338 18.9964269,6.82132066 18.9964269,9.86509721 C18.9964269,11.3869855 18.765426,12.732226 18.3034242,13.9008188 C17.8414224,15.0694116 17.1891845,16.0477683 16.3467107,16.835889 C15.5042368,17.6240098 14.4919093,18.2286886 13.3097283,18.6499255 C12.1275472,19.0711624 10.8026891,19.2817809 9.33515397,19.2817809 Z M5.58478644,4.72872428 L5.58478644,15.1237647 C6.64467291,15.0965882 7.54829408,15.0829999 8.29564993,15.0829999 C9.04300577,15.0829999 9.68165532,15.0354409 10.2115986,14.9403228 C10.7415418,14.8452048 11.1899553,14.6685571 11.5568391,14.4103796 C11.9237229,14.1522021 12.2566359,13.7649359 12.5555783,13.248581 C12.827344,12.7865792 13.0311684,12.2634301 13.1670512,11.6791337 C13.3029341,11.0948373 13.3708756,10.5037468 13.3708756,9.90586207 C13.3708756,9.28080082 13.3029341,8.66253371 13.1670512,8.05106074 C13.0311684,7.43958777 12.8001675,6.8892621 12.4740485,6.40008373 C12.1479296,5.91090535 11.7131044,5.516845 11.1695729,5.21790266 C10.6260413,4.91896032 9.94662694,4.76948915 9.13132965,4.76948915 L7.07270399,4.76948915 C7.07270399,4.76948915 6.57673147,4.75590086 5.58478644,4.72872428 Z M42.8846375,9.09056478 C42.8846375,9.9873918 42.7555487,10.8366598 42.4973712,11.6383688 C42.2391938,12.4400778 41.8791041,13.1602571 41.4171023,13.7989066 C40.9551005,14.4375562 40.4183631,14.994676 39.8068902,15.4702661 C39.1954172,15.9458562 38.5227969,16.3059458 37.7890294,16.550535 C38.4956204,16.7951242 39.0867109,17.2163611 39.562301,17.8142458 C40.0378911,18.4121305 40.4523339,19.1866629 40.8056294,20.1378431 L42.3139293,24.2550944 C42.5585185,24.9345088 42.8302843,25.5188052 43.1292266,26.0079835 C43.428169,26.4971619 43.7950528,26.9048106 44.229878,27.2309295 C43.8765825,27.7201079 43.3670217,28.1141682 42.7011956,28.4131106 C42.0353694,28.7120529 41.2812194,28.8615241 40.4387456,28.8615241 C39.6234483,28.8615241 38.9712105,28.6169349 38.4820321,28.1277565 C37.9928537,27.6385781 37.5444402,26.8096926 37.1367916,25.6410998 L35.4246672,20.7900809 C35.0713718,19.8389007 34.6229582,19.1119273 34.0794267,18.6091606 C33.5358952,18.106394 32.7205979,17.8550106 31.6335348,17.8550106 L29.1468781,17.8550106 L29.1468781,28.5354051 C28.766406,28.5897583 28.3451691,28.6373173 27.8831673,28.6780822 C27.4211655,28.718847 26.9183989,28.7392295 26.3748673,28.7392295 C25.369334,28.7392295 24.4860953,28.671288 23.7251511,28.5354051 L23.7251511,0.896827019 L24.0105052,0.652237832 C26.2118079,0.597884679 28.0801975,0.557119815 29.6156741,0.529943238 C31.1511506,0.502766662 32.3808907,0.489178374 33.3048943,0.489178374 C36.2399645,0.489178374 38.570356,1.22294593 40.2960686,2.69048106 C42.0217812,4.15801618 42.8846375,6.29137742 42.8846375,9.09056478 L42.8846375,9.09056478 Z M29.1468781,4.64719455 L29.1468781,13.6154647 C30.5600601,13.533935 31.8101826,13.4931701 32.8972456,13.4931701 C35.8051393,13.4931701 37.2590861,12.025635 37.2590861,9.09056478 C37.2590861,6.15549454 35.8051393,4.68795942 32.8972456,4.68795942 L30.7163254,4.68795942 C30.7163254,4.68795942 30.1931763,4.67437113 29.1468781,4.64719455 Z M64.082367,14.6345864 C64.082367,7.8132657 62.0713003,4.40260537 58.049167,4.40260537 C54.0270337,4.40260537 52.0159671,7.8132657 52.0159671,14.6345864 C52.0159671,21.4287304 54.0270337,24.8258025 58.049167,24.8258025 C62.0713003,24.8258025 64.082367,21.4287304 64.082367,14.6345864 Z M50.6299617,26.6194565 C47.722068,24.1192115 46.2681212,20.1242548 46.2681212,14.6345864 C46.2681212,12.3245774 46.5330928,10.2727459 47.0630361,8.47909182 C47.5929793,6.68543778 48.3675117,5.17034365 49.3866333,3.93380942 C50.4057549,2.6972752 51.6422892,1.75288917 53.096236,1.10065134 C54.5501828,0.448413509 56.2147481,0.122294593 58.0899319,0.122294593 C59.9379391,0.122294593 61.5889161,0.448413509 63.0428629,1.10065134 C64.4968098,1.75288917 65.7265499,2.6972752 66.7320832,3.93380942 C67.7376165,5.17034365 68.5053548,6.69223192 69.035298,8.49947425 C69.5652413,10.3067166 69.8302129,12.3517539 69.8302129,14.6345864 C69.8302129,16.9174188 69.5652413,18.955662 69.035298,20.749316 C68.5053548,22.5429701 67.7376165,24.0580642 66.7320832,25.2945984 C65.7265499,26.5311326 64.4968098,27.4755187 63.0428629,28.1277565 C61.5889161,28.7799943 59.9379391,29.1061133 58.0899319,29.1061133 C55.1276851,29.1061133 52.6410284,28.2772277 50.6299617,26.6194565 L50.6299617,26.6194565 Z M80.3883128,28.5354051 C79.6545452,28.671288 78.7509241,28.7392295 77.6774493,28.7392295 C76.6039745,28.7392295 75.6867651,28.671288 74.9258209,28.5354051 L74.9258209,0.937591883 L75.211175,0.693002696 L92.0062992,0.693002696 C92.1693586,1.31806395 92.2508884,2.05183151 92.2508884,2.89430538 C92.2508884,3.73677925 92.0130933,4.35504636 91.5375032,4.74910671 C91.0619131,5.14316707 90.3077631,5.34019725 89.2750532,5.34019725 L80.3475479,5.34019725 L80.3883128,9.29438911 L80.3883128,12.3517539 L89.6827019,12.3517539 C89.8729379,12.9496386 89.9680559,13.6902003 89.9680559,14.5734391 C89.9680559,15.4566778 89.8729379,16.2244161 89.6827019,16.8766539 L80.3883128,16.8766539 L80.3883128,28.5354051 L80.3883128,28.5354051 Z M96.6127289,28.5354051 L96.6127289,0.693002696 C97.2921433,0.557119815 98.1821761,0.489178374 99.2828275,0.489178374 C100.383479,0.489178374 101.314277,0.557119815 102.075221,0.693002696 L102.075221,28.5354051 C101.314277,28.671288 100.383479,28.7392295 99.2828275,28.7392295 C98.1821761,28.7392295 97.2921433,28.671288 96.6127289,28.5354051 Z M118.136577,23.8882106 L125.718842,23.8882106 C125.718842,24.7035079 125.664489,25.3965106 125.555783,25.9672187 C125.25684,27.7336961 124.074659,28.6169349 122.009239,28.6169349 L112.103377,28.6169349 C111.125021,28.6169349 110.350488,28.3247867 109.77978,27.7404903 C109.209072,27.1561939 108.923718,26.361279 108.923718,25.3557457 L108.923718,0.733767561 L109.209072,0.448413509 L111.247315,0.448413509 C112.334378,0.448413509 113.136087,0.726973417 113.652442,1.28409323 C114.168797,1.84121305 114.426975,2.73124592 114.426975,3.95419186 L114.426975,24.0512701 C115.595567,23.9425637 116.832102,23.8882106 118.136577,23.8882106 L118.136577,23.8882106 Z M135.42088,21.5646133 L135.380115,24.0920349 L138.233656,24.0105052 L148.221047,24.0105052 C148.221047,24.8801556 148.180282,25.5459818 148.098753,26.0079835 C147.79981,27.7472844 146.631218,28.6169349 144.592974,28.6169349 L133.138047,28.6169349 C132.159691,28.6169349 131.391952,28.3247867 130.834833,27.7404903 C130.277713,27.1561939 129.999153,26.361279 129.999153,25.3557457 L129.999153,0.978356748 L130.284507,0.693002696 L147.283455,0.693002696 C147.419338,1.3724171 147.48728,2.09939052 147.48728,2.87392295 C147.48728,3.64845537 147.337809,4.45695852 147.038866,5.29943238 L135.380115,5.29943238 L135.42088,8.11220803 L135.42088,12.3109891 L138.070596,12.2702242 L144.959858,12.2702242 C145.177271,12.8952855 145.285977,13.6426413 145.285977,14.5122918 C145.285977,15.3819422 145.177271,16.1292981 144.959858,16.7543593 L135.42088,16.7543593 L135.42088,21.5646133 Z" id="Shape"></path>
            </g>
        </g>
    </g>
</svg>